<?xml version="1.0" encoding="utf-8"?>
<!-- Generator: Adobe Illustrator 15.0.0, SVG Export Plug-In  -->
<!DOCTYPE svg PUBLIC "-//W3C//DTD SVG 1.1//EN" "http://www.w3.org/Graphics/SVG/1.1/DTD/svg11.dtd" [
	<!ENTITY ns_flows "http://ns.adobe.com/Flows/1.0/">
]>
<svg version="1.1"
	 xmlns="http://www.w3.org/2000/svg" xmlns:xlink="http://www.w3.org/1999/xlink" xmlns:a="http://ns.adobe.com/AdobeSVGViewerExtensions/3.0/"
	 x="0px" y="0px" viewBox="-9 61.129 440 158" enable-background="new -9 61.129 440 158"
	 xml:space="preserve">
<defs>
</defs>
<g display="none">
	<path display="inline" fill="#E75625" d="M84.751,45.547c-2.041,1.253-4.476,1.88-7.305,1.88c-3.742,0-6.759-1.285-9.05-3.854
		c-2.292-2.569-3.438-5.931-3.438-10.084c0-4.368,1.289-7.945,3.867-10.729c2.578-2.784,5.89-4.176,9.937-4.176
		c2.095,0,4.126,0.43,6.096,1.289v2.793c-1.97-1.217-4.127-1.826-6.472-1.826c-3.223,0-5.837,1.159-7.842,3.478
		c-2.005,2.319-3.008,5.322-3.008,9.01c0,3.563,0.917,6.428,2.752,8.594c1.835,2.167,4.257,3.25,7.265,3.25
		c2.757,0,5.156-0.734,7.197-2.202V45.547z"/>
	<path display="inline" fill="#E75625" d="M120.829,21.833c-0.824-0.591-1.791-0.886-2.9-0.886c-2.167,0-3.984,1.119-5.452,3.357
		c-1.468,2.238-2.202,5.416-2.202,9.534v12.917h-2.417v-27.5h2.417v6.096h0.107c0.626-2.095,1.62-3.724,2.981-4.888
		c1.36-1.164,2.936-1.746,4.727-1.746c1.021,0,1.934,0.161,2.739,0.483V21.833z"/>
	<path display="inline" fill="#E75625" d="M142.002,33.113c0,3.778,0.873,6.732,2.619,8.862c1.745,2.131,4.14,3.196,7.184,3.196
		c3.079,0,6.087-1.137,9.023-3.411v2.632c-2.847,2.023-6.025,3.035-9.534,3.035c-3.545,0-6.41-1.271-8.594-3.813
		c-2.185-2.542-3.276-6.132-3.276-10.769c0-4.01,1.141-7.39,3.424-10.138c2.282-2.748,5.25-4.122,8.902-4.122
		c3.419,0,6.042,1.2,7.869,3.599c1.826,2.399,2.739,5.676,2.739,9.829v1.101H142.002z M159.78,30.857
		c-0.107-3.169-0.869-5.63-2.283-7.385c-1.415-1.754-3.366-2.632-5.854-2.632c-2.578,0-4.713,0.864-6.405,2.592
		c-1.691,1.728-2.735,4.203-3.128,7.425H159.78z"/>
	<path display="inline" fill="#E75625" d="M202.115,46.755V41.25h-0.107c-0.877,1.88-2.153,3.379-3.827,4.498
		c-1.674,1.119-3.532,1.679-5.573,1.679c-2.614,0-4.682-0.734-6.204-2.202c-1.522-1.468-2.283-3.321-2.283-5.559
		c0-4.798,3.178-7.698,9.534-8.701l8.459-1.262c0-5.908-2.22-8.862-6.66-8.862c-3.026,0-5.971,1.218-8.835,3.652v-2.981
		c1.021-0.806,2.403-1.495,4.149-2.068c1.745-0.573,3.388-0.859,4.928-0.859c2.829,0,5.018,0.877,6.566,2.632
		c1.548,1.755,2.323,4.306,2.323,7.654v17.886H202.115z M194.542,33.059c-2.883,0.412-4.906,1.079-6.069,2
		c-1.164,0.922-1.746,2.422-1.746,4.499c0,1.629,0.542,2.972,1.625,4.028c1.083,1.057,2.591,1.584,4.525,1.584
		c2.649,0,4.852-0.98,6.606-2.94c1.754-1.961,2.632-4.489,2.632-7.587v-2.686L194.542,33.059z"/>
	<path display="inline" fill="#E75625" d="M240.234,46.379c-1.289,0.608-2.498,0.913-3.625,0.913c-4.064,0-6.096-2.435-6.096-7.305
		V21.511h-4.941v-2.256h4.941v-7.144c0.394-0.143,0.806-0.286,1.235-0.43c0.43-0.125,0.841-0.259,1.235-0.403v7.976h7.251v2.256
		h-7.251v18.154c0,1.898,0.3,3.272,0.899,4.123c0.6,0.85,1.616,1.275,3.048,1.275c1.021,0,2.122-0.331,3.303-0.994V46.379z"/>
	<path display="inline" fill="#E75625" d="M263.394,12.327c-0.537,0-1.012-0.197-1.423-0.591c-0.412-0.394-0.618-0.895-0.618-1.504
		c0-0.591,0.21-1.07,0.631-1.437c0.421-0.367,0.891-0.55,1.41-0.55c0.555,0,1.043,0.179,1.464,0.537
		c0.42,0.358,0.631,0.842,0.631,1.45c0,0.573-0.206,1.065-0.618,1.477C264.459,12.121,263.967,12.327,263.394,12.327z
		 M262.186,46.755v-27.5h2.471v27.5H262.186z"/>
	<path display="inline" fill="#E75625" d="M298.988,46.755h-2.256l-10.635-27.5h2.766l8.191,21.887
		c0.394,1.057,0.671,2.014,0.833,2.874h0.107c0.232-1.128,0.492-2.05,0.779-2.766l8.459-21.995h2.686L298.988,46.755z"/>
	<path display="inline" fill="#E75625" d="M331.978,33.113c0,3.778,0.873,6.732,2.619,8.862c1.745,2.131,4.14,3.196,7.184,3.196
		c3.079,0,6.087-1.137,9.023-3.411v2.632c-2.847,2.023-6.025,3.035-9.534,3.035c-3.545,0-6.41-1.271-8.594-3.813
		c-2.185-2.542-3.276-6.132-3.276-10.769c0-4.01,1.141-7.39,3.424-10.138c2.282-2.748,5.25-4.122,8.902-4.122
		c3.419,0,6.042,1.2,7.869,3.599c1.826,2.399,2.739,5.676,2.739,9.829v1.101H331.978z M349.756,30.857
		c-0.107-3.169-0.869-5.63-2.283-7.385c-1.415-1.754-3.366-2.632-5.854-2.632c-2.578,0-4.713,0.864-6.405,2.592
		c-1.691,1.728-2.735,4.203-3.128,7.425H349.756z"/>
</g>
<g>
	<path fill="#E75625" d="M77.428,205.862c-1.504,0-2.876-0.264-4.116-0.791c-1.241-0.527-2.305-1.299-3.193-2.314
		c-0.889-1.015-1.578-2.266-2.065-3.75c-0.488-1.484-0.732-3.183-0.732-5.098c0-1.875,0.239-3.555,0.718-5.039
		c0.479-1.484,1.162-2.734,2.051-3.75c0.889-1.015,1.953-1.792,3.193-2.329c1.24-0.537,2.622-0.806,4.146-0.806
		c1.094,0,2.114,0.146,3.062,0.439c0.947,0.293,1.787,0.723,2.52,1.289c0.732,0.567,1.348,1.27,1.846,2.109
		c0.498,0.84,0.845,1.797,1.04,2.871H83.61c-0.098-0.703-0.318-1.328-0.659-1.875c-0.342-0.546-0.787-1.006-1.333-1.377
		c-0.547-0.371-1.177-0.649-1.89-0.835c-0.713-0.186-1.479-0.278-2.3-0.278c-1.153,0-2.208,0.201-3.164,0.601
		c-0.957,0.4-1.777,1.001-2.461,1.802c-0.684,0.801-1.211,1.802-1.582,3.003c-0.371,1.201-0.557,2.593-0.557,4.175
		c0,1.602,0.186,3.003,0.557,4.204c0.371,1.201,0.898,2.202,1.582,3.003c0.684,0.801,1.504,1.402,2.461,1.802
		c0.957,0.4,2.011,0.601,3.164,0.601c0.762,0,1.494-0.092,2.197-0.278c0.703-0.186,1.333-0.458,1.89-0.82
		c0.557-0.361,1.021-0.81,1.392-1.348c0.371-0.537,0.605-1.167,0.703-1.89h2.285c-0.215,1.094-0.571,2.056-1.069,2.886
		c-0.498,0.831-1.113,1.528-1.846,2.095c-0.732,0.567-1.572,0.992-2.52,1.274C79.513,205.72,78.502,205.862,77.428,205.862z"/>
	<path fill="#E75625" d="M119.452,184.387c-0.215-0.039-0.45-0.059-0.703-0.059c-0.234,0-0.518,0-0.85,0
		c-0.664,0-1.309,0.137-1.934,0.41c-0.625,0.274-1.221,0.63-1.787,1.069c-0.567,0.439-1.094,0.938-1.582,1.494
		c-0.488,0.557-0.908,1.128-1.26,1.714v16.26h-2.344v-22.705h2.344v3.135c0.664-0.781,1.323-1.416,1.978-1.904
		c0.654-0.488,1.289-0.869,1.904-1.143c0.615-0.273,1.206-0.454,1.772-0.542c0.566-0.088,1.084-0.132,1.553-0.132
		c0.156,0,0.303,0.005,0.439,0.015c0.136,0.01,0.293,0.025,0.469,0.044V184.387z"/>
	<path fill="#E75625" d="M151.045,205.862c-1.582,0-3.018-0.269-4.307-0.806s-2.398-1.318-3.325-2.344
		c-0.928-1.025-1.646-2.28-2.153-3.765c-0.508-1.484-0.762-3.174-0.762-5.068c0-1.835,0.244-3.491,0.732-4.966
		c0.488-1.475,1.182-2.725,2.08-3.75c0.898-1.025,1.963-1.812,3.193-2.358c1.23-0.546,2.597-0.82,4.102-0.82
		c1.542,0,2.939,0.274,4.189,0.82c1.25,0.547,2.314,1.333,3.193,2.358s1.553,2.275,2.021,3.75c0.469,1.475,0.703,3.14,0.703,4.995
		v0.527h-17.871c0.117,1.543,0.4,2.881,0.85,4.014c0.449,1.133,1.035,2.076,1.758,2.827c0.722,0.752,1.557,1.314,2.505,1.685
		c0.947,0.371,1.978,0.557,3.091,0.557c0.781,0,1.563-0.092,2.344-0.278c0.781-0.186,1.489-0.464,2.124-0.835
		c0.634-0.371,1.167-0.83,1.597-1.377c0.429-0.546,0.684-1.172,0.762-1.875h2.314c-0.215,1.074-0.596,2.026-1.143,2.856
		c-0.547,0.831-1.221,1.534-2.021,2.109c-0.801,0.576-1.709,1.011-2.725,1.304C153.282,205.715,152.198,205.862,151.045,205.862z
		 M158.34,192.092c-0.391-2.597-1.274-4.541-2.651-5.83s-3.072-1.934-5.083-1.934c-0.996,0-1.924,0.157-2.783,0.469
		c-0.86,0.313-1.626,0.791-2.3,1.436s-1.241,1.455-1.699,2.432c-0.459,0.977-0.787,2.12-0.981,3.428H158.34z"/>
	<path fill="#E75625" d="M199.69,202.346c-0.801,0.703-1.582,1.285-2.344,1.743c-0.762,0.459-1.509,0.82-2.241,1.084
		s-1.46,0.444-2.183,0.542c-0.723,0.098-1.455,0.146-2.197,0.146c-0.996,0-1.924-0.151-2.783-0.454
		c-0.86-0.303-1.602-0.732-2.227-1.289c-0.625-0.557-1.118-1.23-1.479-2.021c-0.362-0.791-0.542-1.665-0.542-2.622
		c0-2.597,1.108-4.619,3.325-6.064c2.216-1.445,5.542-2.168,9.976-2.168h2.695c0-0.996-0.059-1.914-0.176-2.754
		c-0.117-0.839-0.391-1.567-0.82-2.183c-0.43-0.615-1.065-1.099-1.904-1.45c-0.84-0.352-1.982-0.527-3.428-0.527
		c-2.129,0-3.726,0.333-4.79,0.996c-1.065,0.664-1.695,1.67-1.89,3.018h-2.314c0.234-2.148,1.074-3.745,2.52-4.79
		c1.445-1.044,3.593-1.567,6.445-1.567c1.582,0,2.925,0.195,4.028,0.586c1.103,0.391,2.002,0.952,2.695,1.685
		c0.693,0.732,1.196,1.622,1.509,2.666c0.312,1.045,0.469,2.222,0.469,3.53v14.824h-2.344V202.346z M199.69,193.586h-3.545
		c-3.398,0-5.933,0.488-7.603,1.465c-1.67,0.977-2.505,2.373-2.505,4.189c0,1.348,0.527,2.398,1.582,3.149
		c1.055,0.752,2.5,1.128,4.336,1.128c0.801,0,1.577-0.122,2.329-0.366c0.751-0.244,1.46-0.561,2.124-0.952
		c0.664-0.391,1.274-0.825,1.831-1.304c0.557-0.479,1.04-0.942,1.45-1.392V193.586z"/>
	<path fill="#E75625" d="M235.122,205.481c-0.333,0.039-0.664,0.068-0.996,0.088c-0.333,0.019-0.664,0.029-0.996,0.029
		c-1.016,0-1.831-0.142-2.446-0.425s-1.084-0.708-1.406-1.274c-0.322-0.566-0.532-1.274-0.63-2.124
		c-0.098-0.85-0.146-1.841-0.146-2.974v-13.887h-2.9v-2.344h2.9v-5.947h2.344v5.947h3.721v2.344h-3.721v14.092
		c0,0.938,0.068,1.685,0.205,2.241c0.136,0.557,0.341,0.986,0.615,1.289c0.273,0.303,0.61,0.498,1.011,0.586
		c0.4,0.088,0.854,0.132,1.362,0.132c0.215,0,0.4,0,0.557,0c0.156,0,0.332-0.01,0.527-0.029V205.481z"/>
	<path fill="#E75625" d="M260.768,205.276h-2.344v-22.705h2.344V205.276z M260.797,176.858h-2.344v-3.662h2.344V176.858z"/>
	<path fill="#E75625" d="M303.465,182.571l-8.613,22.705h-2.109l-8.613-22.705h2.373l7.295,19.482l7.324-19.482H303.465z"/>
	<path fill="#E75625" d="M335.879,205.862c-1.582,0-3.018-0.269-4.307-0.806s-2.398-1.318-3.325-2.344
		c-0.928-1.025-1.646-2.28-2.153-3.765c-0.508-1.484-0.762-3.174-0.762-5.068c0-1.835,0.244-3.491,0.732-4.966
		c0.488-1.475,1.182-2.725,2.08-3.75c0.898-1.025,1.963-1.812,3.193-2.358c1.23-0.546,2.597-0.82,4.102-0.82
		c1.542,0,2.939,0.274,4.189,0.82c1.25,0.547,2.314,1.333,3.193,2.358s1.553,2.275,2.021,3.75c0.469,1.475,0.703,3.14,0.703,4.995
		v0.527h-17.871c0.117,1.543,0.4,2.881,0.85,4.014c0.449,1.133,1.035,2.076,1.758,2.827c0.722,0.752,1.557,1.314,2.505,1.685
		c0.947,0.371,1.978,0.557,3.091,0.557c0.781,0,1.563-0.092,2.344-0.278c0.781-0.186,1.489-0.464,2.124-0.835
		c0.634-0.371,1.167-0.83,1.597-1.377c0.429-0.546,0.684-1.172,0.762-1.875h2.314c-0.215,1.074-0.596,2.026-1.143,2.856
		c-0.547,0.831-1.221,1.534-2.021,2.109c-0.801,0.576-1.709,1.011-2.725,1.304C338.116,205.715,337.032,205.862,335.879,205.862z
		 M343.174,192.092c-0.391-2.597-1.274-4.541-2.651-5.83s-3.072-1.934-5.083-1.934c-0.996,0-1.924,0.157-2.783,0.469
		c-0.86,0.313-1.626,0.791-2.3,1.436s-1.241,1.455-1.699,2.432c-0.459,0.977-0.787,2.12-0.981,3.428H343.174z"/>
</g>
<circle fill="#007876" cx="96.784" cy="124.495" r="41.833"/>
<path fill="#007876" d="M138.326,166.34c-0.479,0-0.958-0.55-0.958-0.99v-80.41c0-0.55,0.36-1.1,0.958-1.1h32.119
	c0.6,0,1.079,0.44,1.199,1.1l3.595,21.89c0.12,0.77,0.36,1.1,0.6,1.1s0.479-0.44,0.479-1.21l2.876-21.67
	c0.12-0.66,0.599-1.21,1.318-1.21h33.317c0.839,0,1.318,0.44,1.318,1.21v80.19c0,0.66-0.599,1.1-1.318,1.1h-21.692
	c-0.719,0-1.318-0.44-1.318-1.21V130.7c0-0.88-0.12-1.21-0.36-1.21s-0.479,0.44-0.839,2.2l-6.232,33.771
	c-0.12,0.66-0.719,0.88-1.318,0.88h-13.543c-0.599,0-1.078-0.44-1.318-1.21l-5.513-31.46c-0.359-1.87-0.838-2.2-1.198-2.2
	s-0.6,0.55-0.6,1.43v32.23c0,0.77-0.359,1.21-1.198,1.21H138.326z"/>
<g>
	<path fill="#007876" d="M20.291,166.43c-0.917,0-1.833-0.66-1.833-1.54v-57.42c0-0.77-0.785-1.32-1.702-1.32H3.666
		c-0.786,0-1.702-0.88-1.702-1.54v-19.58c0-0.66,0.393-1.1,1.178-1.1h56.027c0.917,0,1.702,0.44,1.702,1.32v19.36
		c0,0.88-0.786,1.54-1.833,1.54h-13.09c-0.917,0-1.571,0.55-1.571,1.54V165c0,0.77-0.786,1.43-1.833,1.43H20.291z"/>
</g>
<g>
	<g>
		<path fill="#f48484" d="M290.996,165.24l-23.262-40.81c-0.177-0.33-0.355-0.99-0.355-1.21c0-0.22,0.178-0.99,0.533-1.43
			l22.551-36.41c0.177-0.22,0.177-0.44,0.177-0.66c0-0.55-0.532-0.88-1.243-0.88h-34.252c-0.888,0-1.598,0.44-1.953,0.99
			l-6.925,19.25c-0.355,0.55-0.71,0.77-1.065,0.77s-0.533-0.33-0.533-0.77v-19.14c0-0.66-0.888-1.1-2.308-1.1h-27.187
			c-0.501,0-0.998,0.008-1.598,0c0,0.359,0,0.86,0,1.1v79.75c0,0.4,0,1.208,0,1.649c0.884,0,1.55,0,2.13,0h26.654
			c2.089-0.033,2.277-0.554,2.308-1.43v-21.23c0-0.55,0.178-0.88,0.533-0.88s0.71,0.22,0.888,0.77l6.748,21.89
			c0.177,0.55,0.71,0.88,1.42,0.88h35.673C290.996,166.34,291.351,165.9,290.996,165.24z"/>
	</g>
</g>
<g>
	<path fill="#f48484" d="M385.907,166.34c-0.917,0-1.833-0.66-1.833-1.54v-57.42c0-0.77-0.785-1.32-1.702-1.32h-13.09
		c-0.786,0-1.702-0.88-1.702-1.54v-19.58c0-0.66,0.393-1.1,1.178-1.1h56.027c0.917,0,1.702,0.44,1.702,1.32v19.36
		c0,0.88-0.786,1.54-1.833,1.54h-13.09c-0.917,0-1.571,0.55-1.571,1.54v57.31c0,0.77-0.786,1.43-1.833,1.43H385.907z"/>
</g>
<g>
	<polygon fill="#f48484" points="290.129,165.578 338.495,84.602 385.449,165.563 	"/>
	<g>
		<path fill="#f48484" d="M290.777,165.956c16.122-26.992,32.244-53.984,48.366-80.976c-0.432,0-0.863,0-1.295,0
			c15.651,26.987,31.302,53.975,46.954,80.962c0.216-0.376,0.432-0.752,0.647-1.128c-31.773,0.005-63.546,0.009-95.319,0.014
			c-0.967,0-0.967,1.5,0,1.5c31.773-0.005,63.546-0.009,95.319-0.014c0.57,0,0.933-0.637,0.647-1.128
			c-15.651-26.987-31.302-53.975-46.954-80.962c-0.285-0.491-1.008-0.481-1.295,0c-16.122,26.992-32.244,53.984-48.366,80.976
			C288.984,166.032,290.282,166.786,290.777,165.956z"/>
	</g>
</g>
</svg>
